# xmcd CD database file
# Copyright (C) 1993-1998 Ti Kan
# 
# Track frame offsets:
#     150
#     18365
#     31372
#     47331
#     62653
#     82815
#     106470
#     121589
#     134438
#     151135
#     167280
#     177987
#     193702
#     211489
#     228373
#     245380
#     256542
#     269047
#     282871
#     301113
# 
# Disc length: 4430 seconds
# 
# Revision: 1
# Processed by: cddbd v1.4b41PL1 Copyright (c) Steve Scherf et al.
# Submitted via: DiscPlay 4.0.4
# 
DISCID=fb114c14
DTITLE=Jimi Hendrix - THE ultimate EXPERIENCE
DYEAR=1900
DGENRE=
TTITLE0=all along the watchtower
TTITLE1=PURPLE HAZE
TTITLE2=HEY JOE
TTITLE3=the WIND CRIES MARY
TTITLE4=angel
TTITLE5=voodoo child
TTITLE6=foxy LADY
TTITLE7=CASTLES madle of SAND
TTITLE8=highway chile
TTITLE9=CROSSTOWN TRAFFIC
TTITLE10=burning of THE midnight lamp
TTITLE11=LONG hot SUMMER night
TTITLE12=red HOUSE
TTITLE13=manic DEPRESSION
TTITLE14=gypsy EYES
TTITLE15=little wing
TTITLE16=FIRE
TTITLE17=wait UNTIL tomorrow
TTITLE18=STAR spangled banner - LIVE
TTITLE19=wild thing - LIVE
EXTD=
EXTT0=
EXTT1=
EXTT2=
EXTT3=
EXTT4=
EXTT5=
EXTT6=
EXTT7=
EXTT8=
EXTT9=
EXTT10=
EXTT11=
EXTT12=
EXTT13=
EXTT14=
EXTT15=
EXTT16=
EXTT17=
EXTT18=
EXTT19=
PLAYORDER=
